<svg width="32" height="32" viewBox="0 0 32 32" fill="none" xmlns="http://www.w3.org/2000/svg">
  <rect x="3" y="3" width="26" height="26" rx="1.5" fill="black"/>
  <path d="M17.5 10.5C17.5 10.5 18.5 11 18.999 11.369V19.35C18.999 19.764 19 20 19 20C20 20 20.5 20 21.644 19.517L22.058 20.569C20.5 21.5 19 22 17.878 22.219C17 21.5 16.049 20.54 16.049 20.54V13.375C15.3283 13.6663 13.5 14 13.5 14C13.5 14 13.19 16.0893 12.5 17.5L11.265 16.929C11.6943 15.8403 11.955 13.042 11.955 13.042L11 11.5V10L13.036 10.029C13.036 10.029 13.427 10.8811 13.542 11.386H13.979C15.901 11.386 16.5 11 17.5 10.5Z" fill="white"/>
</svg>
