<svg width="32" height="32" viewBox="0 0 32 32" fill="none" xmlns="http://www.w3.org/2000/svg">
  <rect x="1" y="1" width="30" height="30" rx="2.5" fill="#2c3b73"/>
  <path d="M17.6415 10.5794C17.6415 10.5794 18.8171 11.1587 19.4038 11.5863V19.6756C19.4038 20.1553 19.405 20.4287 19.405 20.4287C20.5806 20.4287 21.1684 20.4287 22.5133 19.8691L23 21.0881C21.1684 22.1669 19.405 22.7462 18.0859 23C17.0537 22.1669 15.9357 21.0545 15.9357 21.0545V13.9108C15.0885 14.2484 12.939 14.635 12.939 14.635C12.939 14.635 12.5746 17.056 11.7634 18.6906L10.3115 18.029C10.8163 16.7675 11.1227 13.5249 11.1227 13.5249L10 11.7381V10L12.3936 10.0336C12.3936 10.0336 12.8532 11.021 12.9884 11.606H13.5022C15.7618 11.606 16.4659 11.1587 17.6415 10.5794Z" fill="white"/>
</svg>
