<svg width="32" height="32" viewBox="0 0 32 32" fill="none" xmlns="http://www.w3.org/2000/svg">
  <rect width="32" height="32" rx="2.5" fill="#2c3b73"/>
  <path d="M17.6415 9.62394C17.6415 9.62394 18.8171 10.2479 19.4038 10.7084V19.4198C19.4038 19.9364 19.405 20.2309 19.405 20.2309C20.5806 20.2309 21.1684 20.2309 22.5133 19.6282L23 20.941C21.1684 22.1028 19.405 22.7267 18.0859 23C17.0537 22.1028 15.9357 20.9048 15.9357 20.9048V13.2116C15.0885 13.5752 12.939 13.9915 12.939 13.9915C12.939 13.9915 12.5746 16.5988 11.7634 18.3591L10.3115 17.6466C10.8163 16.2881 11.1227 12.7961 11.1227 12.7961L10 10.8718V9L12.3936 9.03619C12.3936 9.03619 12.8532 10.0996 12.9884 10.7296H13.5022C15.7618 10.7296 16.4659 10.2479 17.6415 9.62394Z" fill="white"/>
</svg>
