<svg width="32" height="32" viewBox="0 0 32 32" fill="none" xmlns="http://www.w3.org/2000/svg">
  <rect x="3" y="3" width="26" height="26" rx="1.5" fill="black"/>
  <path d="M17.5 11C17.5 11 18.5 11.5 18.999 11.869V18.85C18.999 19.264 19 19.5 19 19.5C20 19.5 20.5 19.5 21.644 19.017L22.058 20.069C20.5 21 19 21.5 17.878 21.719C17 21 16.049 20.04 16.049 20.04V13.875C15.3283 14.1663 13.5 14.5 13.5 14.5C13.5 14.5 13.19 16.5893 12.5 18L11.265 17.429C11.6943 16.3403 11.955 13.542 11.955 13.542L11 12V10.5L13.036 10.529C13.036 10.529 13.427 11.3811 13.542 11.886H13.979C15.901 11.886 16.5 11.5 17.5 11Z" fill="white"/>
</svg>
