<svg width="32" height="32" viewBox="0 0 32 32" fill="none" xmlns="http://www.w3.org/2000/svg">
  <rect width="32" height="32" rx="2" fill="#121e46"/>
  <path d="M24.015 12.29C23.625 12.888 23.313 13.759 23.079 14.903C22.845 16.047 22.728 16.97 22.728 17.672C22.728 18.374 22.741 18.946 22.767 19.388C21.727 19.232 20.791 18.933 19.959 18.491C19.153 18.023 18.594 17.594 18.282 17.204L17.853 16.619C16.397 18.309 15.461 19.557 15.045 20.363C14.993 21.923 14.967 23.158 14.967 24.068C14.031 23.86 13.069 23.535 12.081 23.093C11.093 22.625 10.326 22.222 9.78 21.884L9 21.377C9.442 17.607 10.092 13.811 10.95 9.989L11.379 8C12.445 8.234 13.407 8.52 14.265 8.858C15.149 9.196 15.76 9.469 16.098 9.677L16.566 10.028C16.046 11.588 15.63 13.863 15.318 16.853C15.942 15.397 17.255 12.654 19.257 8.624L24.015 12.29Z" fill="white"/>
</svg>
